<?xml version="1.0" encoding="UTF-8"?>
<svg xmlns="http://www.w3.org/2000/svg" xmlns:xlink="http://www.w3.org/1999/xlink" width="810pt" height="809.999993pt" viewBox="0 0 810 809.999993" version="1.2">
<defs>
<clipPath id="clip1">
  <path d="M 0 4 L 810 4 L 810 810 L 0 810 Z M 0 4 "/>
</clipPath>
<clipPath id="clip2">
  <path d="M 119.167969 633.542969 C 110.085938 629.410156 107.3125 616.253906 98.933594 606.285156 C 97.105469 602.746094 100.824219 607.40625 105.601562 614.132812 C 110.203125 620.855469 116.929688 628.878906 119.167969 633.542969 Z M 77.164062 635.902344 L 73.683594 638.4375 C 77.875 644.988281 82.769531 650.652344 85.425781 649.117188 C 82.769531 645.695312 80.644531 644.160156 78.464844 642.6875 C 79.703125 641.328125 80.527344 639.972656 77.164062 635.902344 Z M 289.664062 739.03125 C 297.394531 741.683594 304.707031 743.808594 309.546875 743.515625 C 280.875 736.433594 247.835938 720.445312 225.183594 710.238281 C 232.027344 714.015625 238.8125 717.910156 245.832031 721.390625 L 267.363281 730.769531 C 273.796875 733.25 281.9375 736.433594 289.664062 739.03125 Z M 700.917969 671.359375 C 695.550781 678.675781 689.53125 684.8125 684.046875 690.945312 C 678.441406 696.964844 673.132812 702.921875 667.703125 708.175781 C 656.554688 718.441406 646.523438 728.351562 636.4375 736.964844 C 636.199219 737.140625 635.964844 737.378906 635.730469 737.554688 C 630.714844 739.441406 625.9375 740.445312 621.511719 740.210938 C 614.433594 745.875 607.058594 750.238281 600.15625 754.722656 C 593.132812 759.089844 586.527344 763.457031 579.917969 767.171875 C 579.742188 767.289062 579.566406 767.347656 579.449219 767.410156 C 578.738281 767.347656 578.089844 767.230469 577.265625 767.289062 C 577.148438 767.761719 577.027344 768.292969 576.910156 768.765625 C 564.640625 775.253906 553.3125 781.566406 542.28125 786.878906 C 530.246094 792.421875 519.035156 798.441406 507.886719 803.988281 C 496.679688 809.355469 485.765625 815.316406 474.613281 821.980469 C 486 817.792969 499.390625 812.894531 513.84375 807.644531 C 527.828125 801.507812 543.046875 795.84375 557.796875 789 C 562.042969 786.9375 566.351562 784.988281 570.65625 782.984375 C 570.65625 783.042969 570.597656 783.042969 570.597656 783.101562 C 574.667969 781.863281 577.089844 780.566406 579.09375 779.148438 C 586.527344 775.726562 593.84375 772.304688 600.804688 768.648438 C 593.902344 774.902344 587.058594 781.390625 580.273438 788.351562 C 590.183594 781.390625 601.867188 773.191406 614.433594 764.339844 C 616.671875 762.511719 619.035156 760.742188 621.394531 758.914062 C 621.394531 758.914062 621.453125 758.914062 621.453125 758.914062 C 627.941406 755.84375 634.078125 752.71875 640.035156 750.238281 C 641.214844 743.394531 631.304688 754.839844 629.710938 752.539062 C 634.078125 749.238281 638.441406 745.933594 642.75 742.453125 C 651.597656 735.960938 660.09375 729.648438 667.703125 722.863281 C 673.484375 717.96875 679.03125 713.128906 684.28125 708.351562 C 685.875 706.816406 687.347656 705.222656 688.824219 703.632812 C 694.488281 698.675781 700.152344 693.898438 705.636719 689.472656 C 711.125 684.8125 716.257812 680.207031 721.390625 676.257812 C 720.742188 669.058594 713.542969 684.160156 711.773438 680.917969 C 722.390625 667.464844 732.777344 655.371094 741.09375 642.6875 C 745.402344 636.492188 749.53125 630.355469 753.363281 624.335938 C 757.023438 618.203125 760.148438 611.890625 763.15625 605.753906 C 752.007812 619.792969 741.625 634.664062 731.773438 647.40625 C 721.742188 660.03125 711.125 669.292969 700.917969 671.359375 Z M 793.71875 466.046875 C 792.066406 473.832031 790.589844 481.089844 789.117188 487.992188 C 787.816406 494.953125 786.578125 501.503906 785.398438 507.875 C 783.984375 514.1875 782.683594 520.441406 781.625 526.695312 C 783.628906 519.910156 785.753906 512.59375 787.996094 505.160156 C 789.765625 497.609375 791.535156 489.820312 793.304688 482.269531 C 797.019531 467.105469 798.082031 452.179688 797.671875 440.675781 C 796.253906 449.820312 794.957031 458.199219 793.71875 466.046875 Z M 264.710938 788.351562 C 272.554688 790.832031 281.757812 794.84375 290.960938 798.148438 C 300.167969 801.390625 309.546875 803.101562 316.921875 802.75 C 308.425781 800.449219 297.746094 797.617188 288.308594 793.957031 C 278.75 790.476562 270.078125 787.820312 264.710938 788.351562 Z M 797.019531 307.457031 C 799.441406 315.128906 801.859375 322.621094 804.160156 329.820312 C 802.152344 321.085938 800.03125 312.414062 797.730469 303.917969 C 794.957031 295.539062 792.066406 287.339844 789.058594 279.433594 C 787.523438 275.480469 785.988281 271.644531 784.457031 267.8125 C 782.804688 264.09375 780.914062 260.496094 779.085938 257.015625 C 775.429688 250.050781 771.652344 243.503906 767.878906 237.546875 C 775.371094 253.003906 782.921875 268.519531 788.40625 284.332031 C 791.296875 292.175781 794.484375 299.847656 797.019531 307.457031 Z M 750.296875 208.871094 C 754.015625 215.007812 757.554688 220.140625 761.035156 223.265625 C 753.777344 211.289062 746.460938 196.660156 738.320312 189.109375 C 740.445312 192.46875 742.628906 195.832031 744.691406 199.136719 C 746.640625 202.5 748.527344 205.804688 750.296875 208.871094 Z M 275.210938 636.492188 C 272.96875 634.664062 268.957031 631.949219 264.179688 629.058594 C 259.339844 626.167969 254.210938 622.332031 248.664062 619.382812 C 247.128906 620.207031 244.59375 620.796875 247.835938 620.5625 C 253.324219 622.804688 258.28125 628.703125 260.167969 630.53125 C 255.800781 627.289062 251.199219 623.394531 249.726562 627.167969 C 251.023438 627.230469 252.144531 627.640625 253.265625 628.171875 C 252.910156 628.347656 252.617188 628.46875 252.261719 628.820312 C 252.027344 630.058594 254.917969 632.890625 258.339844 635.015625 C 261.820312 636.964844 265.652344 638.378906 266.597656 637.613281 C 265.125 637.023438 263.707031 635.722656 262.292969 634.25 C 263.351562 634.664062 264.355469 634.601562 265.300781 633.71875 C 264.0625 633.304688 262.585938 632.300781 261.113281 631.242188 C 277.335938 640.328125 279.695312 640.148438 275.210938 636.492188 Z M 282.054688 675.84375 C 288.601562 678.792969 295.742188 684.8125 300.226562 680.148438 C 292.671875 677.4375 286.480469 674.898438 282.054688 675.84375 Z M 3.894531 462.742188 C 5.074219 466.929688 6.3125 470.882812 7.433594 474.246094 C 6.195312 470 5.191406 465.574219 4.71875 461.148438 C 4.367188 456.722656 4.246094 452.296875 4.128906 448.167969 C 3.894531 439.851562 3.714844 432.59375 1.828125 427.816406 C 0.117188 432.769531 0.355469 441.03125 1.535156 449.761719 C 2.125 454.070312 2.949219 458.492188 3.894531 462.742188 Z M 247.246094 700.210938 C 246.363281 700.742188 251.316406 704.632812 265.359375 707.878906 C 260.109375 704.8125 255.742188 702.921875 252.617188 701.683594 C 249.605469 700.386719 247.660156 699.914062 247.246094 700.210938 Z M 160.523438 636.667969 C 168.078125 641.917969 176.277344 649.472656 183.179688 650.355469 C 178.28125 646.402344 172.382812 640.03125 168.136719 635.488281 C 163.828125 630.945312 161.054688 628.171875 162.945312 630.886719 C 170.496094 638.023438 161.113281 631.890625 160.523438 636.667969 Z M 226.128906 687.582031 C 220.167969 679.148438 208.488281 677.789062 198.28125 668.527344 C 198.8125 677.554688 221.820312 682.863281 226.128906 687.582031 Z M 63.65625 217.25 C 62.949219 215.242188 63.242188 211.289062 65.367188 211.761719 C 69.082031 206.335938 79.230469 188.578125 82.0625 186.097656 C 86.191406 179.609375 90.261719 173.238281 94.390625 167.101562 C 102.355469 156.128906 109.375 144.800781 116.398438 134.121094 C 115.15625 138.664062 114.566406 143.03125 110.4375 149.226562 C 115.394531 144.269531 120.171875 139.550781 124.953125 134.945312 C 128.253906 131.40625 131.558594 127.925781 134.921875 124.5625 C 145.539062 114.769531 155.863281 105.152344 166.128906 96.183594 C 176.691406 87.628906 186.363281 78.484375 195.921875 70.050781 C 193.5625 74.121094 191.851562 78.191406 186.246094 83.085938 C 186.894531 82.734375 187.484375 82.378906 188.132812 82.027344 C 213.089844 63.972656 238.929688 50.402344 267.542969 40.253906 C 266.066406 37.421875 259.339844 40.136719 252.378906 43.265625 C 248.074219 43.027344 254.738281 40.492188 262.644531 37.601562 C 270.433594 34.589844 279.871094 32.347656 280.226562 30.046875 C 279.578125 33.527344 284.886719 33.648438 293.617188 31.9375 C 297.6875 30.992188 302.644531 29.929688 308.070312 28.808594 C 327.125 23.558594 346.300781 20.078125 366.242188 18.484375 C 365.769531 16.359375 362.109375 16.125 357.449219 16.597656 C 355.855469 16.832031 354.324219 17.007812 352.671875 17.246094 C 352.082031 17.363281 351.492188 17.421875 350.84375 17.539062 C 348.363281 16.714844 350.015625 16.125 353.554688 15.652344 C 357.15625 12.820312 371.253906 14.238281 382.875 10.34375 C 379.984375 7.863281 371.960938 8.515625 367.183594 7.214844 C 384.175781 0.429688 390.074219 13.707031 410.488281 11.816406 C 408.539062 9.871094 403.996094 9.042969 398.214844 8.867188 C 400.222656 7.394531 405.355469 7.394531 404.410156 4.5625 C 427.476562 5.503906 450.660156 8.574219 473.609375 13.648438 C 472.667969 13.234375 471.78125 12.820312 471.015625 12.40625 C 479.332031 11.40625 484.289062 13.941406 489.1875 17.246094 C 494.199219 18.542969 499.15625 20.078125 504.113281 21.550781 C 506 21.433594 507.769531 21.257812 507.710938 19.429688 C 561.808594 36.300781 613.429688 65.445312 657.378906 104.621094 C 668.648438 114.710938 679.386719 125.449219 689.589844 136.777344 C 696.671875 144.152344 703.574219 151.703125 710.238281 159.550781 C 711.417969 161.613281 712.835938 163.855469 714.191406 166.039062 C 720.859375 170.167969 728.527344 186.394531 735.195312 194.890625 C 734.015625 194.242188 732.714844 193 731.476562 191.46875 C 743.21875 209.519531 753.777344 228.460938 763.039062 248.28125 C 763.628906 250.582031 764.457031 253.121094 765.164062 255.539062 C 770.121094 260.847656 773.246094 276.246094 777.023438 286.394531 C 775.3125 279.492188 774.839844 272.945312 776.902344 271.292969 C 783.984375 279.078125 783.15625 295.1875 785.515625 304.683594 C 782.625 302.679688 779.441406 295.480469 777.433594 288.226562 C 773.070312 283.269531 770.238281 268.34375 765.871094 258.195312 C 766.167969 259.078125 766.34375 259.847656 766.636719 260.730469 C 767.820312 265.15625 769.117188 269.875 770.414062 274.773438 C 772.890625 284.566406 776.667969 294.832031 778.910156 306.101562 C 781.269531 317.3125 784.394531 328.875 786.046875 340.910156 C 787.582031 352.945312 789.527344 365.097656 790 377.195312 C 790.589844 386.8125 790.769531 396.425781 790.589844 406.042969 C 790.589844 406.101562 790.589844 406.222656 790.589844 406.28125 C 790.589844 406.632812 790.589844 406.988281 790.589844 407.28125 C 790.589844 408.523438 790.589844 409.820312 790.53125 411.058594 C 790.355469 452.59375 784.691406 494.363281 771.535156 534.425781 C 744.929688 617.433594 691.066406 693.425781 614.195312 743.277344 C 614.3125 741.863281 615.082031 740.386719 616.671875 738.734375 C 599.625 750.535156 581.570312 761.035156 562.574219 770.003906 C 557.148438 773.132812 551.71875 776.257812 546.410156 779.328125 C 542.339844 781.566406 538.386719 783.867188 534.257812 785.816406 C 530.128906 787.644531 525.941406 789.414062 521.75 791.066406 C 524.582031 787.644531 530.304688 784.753906 536.441406 781.566406 C 537.265625 781.097656 538.09375 780.683594 538.917969 780.210938 C 532.371094 782.75 525.820312 785.167969 519.097656 787.351562 C 519.863281 785.226562 521.988281 783.277344 527.121094 781.6875 C 526.765625 781.746094 526.410156 781.863281 526.058594 781.980469 C 523.699219 782.808594 521.339844 783.691406 518.859375 784.460938 C 511.839844 786.820312 504.640625 789.238281 497.679688 791.597656 C 490.601562 793.542969 483.699219 795.136719 477.5625 796.496094 C 484.113281 793.898438 491.425781 791.65625 499.15625 788.941406 C 489.714844 791.539062 480.511719 794.371094 471.371094 797.4375 C 462.226562 799.859375 453.199219 802.277344 444.351562 804.636719 C 439.867188 805.699219 435.441406 806.9375 430.957031 807.703125 C 426.472656 808.414062 421.992188 809.0625 417.566406 809.535156 C 421.222656 806.9375 427.417969 805.640625 434.261719 804.164062 C 441.046875 802.453125 448.480469 800.917969 454.554688 798.914062 C 445.058594 799.386719 431.3125 801.6875 416.503906 802.394531 C 409.128906 802.867188 401.519531 803.339844 394.203125 803.8125 C 386.890625 803.871094 379.808594 803.632812 373.496094 803.339844 C 382.996094 802.21875 393.730469 802.101562 405.355469 800.859375 C 416.917969 799.679688 429.363281 799.738281 441.929688 797.675781 C 432.019531 793.839844 417.625 792.070312 403.347656 791.007812 C 399.808594 790.714844 396.210938 790.417969 392.730469 790.125 C 389.25 789.53125 385.886719 789.003906 382.640625 788.472656 C 376.152344 787.292969 370.371094 785.875 365.828125 783.929688 C 368.304688 784.988281 369.070312 783.277344 368.1875 781.039062 C 360.753906 781.332031 348.304688 778.382812 340.339844 778.085938 C 344.941406 775.90625 357.6875 778.855469 367.539062 779.855469 C 366.359375 777.96875 364.175781 775.964844 360.753906 774.902344 C 360.164062 774.664062 359.632812 774.488281 359.101562 774.3125 C 359.867188 774.253906 360.519531 773.957031 360.871094 773.425781 C 359.988281 774.722656 348.71875 764.578125 358.808594 766.050781 C 346.535156 763.21875 335.210938 759.679688 324.589844 756.023438 C 314.148438 751.832031 304.472656 746.996094 295.152344 742.277344 C 305.59375 744.515625 322.347656 753.308594 339.574219 756.90625 C 356.566406 761.507812 373.261719 761.507812 379.515625 753.132812 C 373.4375 747.820312 367.242188 742.984375 358.808594 738.675781 C 350.429688 733.898438 339.515625 730.710938 324 727.761719 C 323.234375 724.929688 324.117188 721.625 320.753906 719.441406 C 321.640625 717.203125 330.546875 723.867188 338.101562 723.335938 C 340.8125 722.863281 341.285156 720.503906 346.125 721.804688 C 345.945312 721.035156 345.472656 720.328125 345.003906 719.679688 C 339.574219 719.089844 332.140625 718.203125 326.890625 718.027344 C 326.535156 715.429688 329.425781 715.785156 332.4375 716.257812 C 323.644531 713.070312 316.980469 711.890625 310.195312 710.121094 C 303.351562 708.585938 296.09375 707.464844 286.363281 704.457031 C 288.542969 702.039062 284.058594 700.503906 280.519531 698.851562 C 289.429688 700.859375 302.171875 703.632812 314.972656 708.175781 C 321.34375 710.476562 328.128906 711.949219 334.382812 714.074219 C 337.15625 714.898438 339.871094 715.84375 342.523438 716.789062 C 340.28125 714.898438 337.570312 713.1875 335.5625 711.183594 C 341.109375 709.945312 355.089844 723.808594 357.746094 712.007812 C 357.980469 707.878906 348.1875 707.761719 341.523438 706.34375 C 342.464844 703.277344 348.011719 704.339844 353.851562 705.519531 C 353.261719 701.09375 351.019531 697.910156 351.492188 695.667969 C 347.363281 695.078125 343.585938 694.015625 342.230469 693.246094 C 342.878906 692.1875 344.765625 692.304688 345.0625 690.886719 C 315.976562 684.574219 346.003906 688.527344 355.679688 692.777344 C 355.738281 692.777344 355.796875 692.71875 355.917969 692.71875 C 350.605469 687.761719 347.421875 685.578125 344.058594 683.75 C 340.695312 682.039062 337.214844 680.328125 331.90625 676.136719 C 333.851562 675.078125 337.332031 676.316406 340.992188 677.789062 C 344.707031 679.089844 348.542969 680.859375 350.902344 681.625 C 353.378906 680.621094 355.796875 679.558594 358.097656 678.4375 C 354.855469 673.304688 340.753906 677.082031 339.222656 673.601562 C 339.871094 671.65625 340.460938 669.707031 338.101562 668.824219 C 343.46875 667.582031 350.84375 675.3125 360.636719 675.960938 C 360.457031 673.957031 352.316406 671.832031 361.050781 673.128906 C 358.628906 669.882812 348.363281 670.238281 344.882812 667.464844 C 349.78125 666.933594 360.222656 667.289062 368.011719 668.410156 C 369.898438 664.8125 364.175781 664.929688 362.464844 663.160156 C 358.097656 662.15625 355.855469 663.21875 355.679688 666.402344 C 349.074219 660.976562 348.601562 656.136719 341.640625 653.484375 C 339.101562 648.824219 350.726562 652.953125 344.53125 649.765625 C 348.011719 647.40625 356.328125 648.824219 364.824219 650.710938 C 366.949219 651.183594 369.070312 651.59375 371.136719 652.007812 C 373.203125 652.246094 375.207031 652.363281 377.09375 652.421875 C 379.867188 652.480469 382.226562 652.363281 383.996094 651.773438 C 376.859375 651.300781 369.78125 650.472656 362.640625 649.414062 C 361.875 649.292969 361.050781 649.175781 360.28125 649.058594 C 358.097656 648.703125 355.976562 648.292969 353.792969 647.878906 C 351.609375 647.464844 349.425781 647.050781 347.242188 646.640625 C 346.476562 646.460938 345.769531 646.285156 345.003906 646.109375 C 329.015625 642.507812 313.617188 637.375 298.984375 630.828125 C 298.632812 630.652344 298.277344 630.472656 297.925781 630.355469 C 294.679688 628.882812 291.433594 627.347656 288.308594 625.753906 C 287.246094 625.222656 286.242188 624.691406 285.242188 624.160156 C 282.820312 622.921875 280.402344 621.625 278.042969 620.265625 C 276.390625 619.324219 274.796875 618.378906 273.144531 617.375 C 271.496094 616.375 269.785156 615.371094 268.132812 614.367188 C 267.542969 614.011719 266.953125 613.660156 266.421875 613.304688 C 266.007812 613.894531 267.660156 615.3125 271.789062 617.496094 C 267.070312 619.265625 260.109375 610.355469 257.21875 607.820312 C 250.90625 614.722656 265.125 616.785156 267.070312 621.445312 C 257.21875 619.675781 250.433594 610.0625 242.410156 607.878906 C 244.238281 610.121094 250.726562 615.546875 258.101562 620.679688 C 253.796875 618.910156 248.25 617.789062 242.941406 616.019531 C 241.703125 615.605469 240.464844 615.132812 239.34375 614.542969 C 242.644531 617.671875 245.714844 620.796875 248.132812 622.746094 C 247.425781 622.804688 246.714844 622.628906 246.007812 622.507812 C 246.125 622.746094 246.363281 622.921875 246.480469 623.15625 C 235.273438 622.863281 228.898438 607.996094 215.746094 604.21875 C 214.625 608.171875 224.652344 608.171875 224.59375 613.542969 C 225.714844 611.832031 229.550781 614.839844 233.5 618.910156 C 237.453125 623.039062 242.234375 627.582031 244.121094 630.238281 C 232.792969 624.042969 225.539062 617.496094 217.574219 611.417969 C 213.503906 608.46875 209.726562 605.046875 205.539062 601.328125 C 201.230469 597.730469 196.511719 593.777344 191.085938 589.234375 C 201.761719 600.386719 206.304688 612.125 220.582031 625.222656 C 216.746094 614.898438 226.1875 628.113281 226.539062 632.066406 C 229.960938 630.769531 235.210938 634.074219 240.996094 638.617188 C 240.167969 639.738281 238.101562 637.964844 236.511719 637.257812 C 255.035156 655.902344 283.53125 668.054688 317.039062 681.035156 C 311.140625 679.914062 305.296875 678.5 299.515625 676.964844 C 293.792969 675.195312 288.367188 672.777344 282.941406 670.535156 C 281.109375 669.824219 279.398438 669 277.6875 668.234375 C 281.347656 670.414062 284.355469 672.597656 284.652344 673.957031 C 287.953125 675.667969 288.839844 674.132812 291.613281 675.136719 C 292.792969 677.140625 288.070312 676.492188 282.527344 674.898438 C 276.980469 673.367188 271.082031 670.003906 269.488281 668.46875 C 270.375 667.644531 272.203125 668.234375 272.792969 666.933594 C 258.8125 659.738281 260.109375 659.617188 265.59375 662.039062 C 261.230469 659.558594 257.039062 656.964844 252.851562 654.484375 C 248.132812 651.832031 243.945312 648.644531 239.753906 645.695312 C 237.277344 644.398438 234.800781 643.160156 232.382812 641.742188 C 227.367188 638.558594 222.707031 634.839844 218.046875 631.242188 C 215.214844 629.175781 212.617188 626.992188 210.082031 624.691406 C 208.546875 623.75 207.070312 622.804688 205.539062 621.976562 C 211.320312 627.9375 216.6875 633.484375 222.175781 638.496094 C 225.242188 640.148438 228.605469 642.507812 232.5 645.222656 C 231.96875 645.578125 231.4375 645.695312 230.90625 645.8125 C 230.964844 645.871094 231.023438 645.929688 231.140625 645.992188 C 235.507812 649.414062 239.753906 652.714844 244.003906 656.019531 C 248.488281 659.027344 253.148438 661.800781 257.867188 664.75 C 276.746094 676.433594 299.28125 686.699219 332.316406 695.550781 C 325.003906 695.609375 317.273438 693.839844 309.308594 691.417969 C 301.347656 689.117188 293.027344 686.40625 285.179688 682.570312 C 269.015625 675.902344 253.972656 667.054688 239.460938 661.980469 C 238.101562 660.210938 238.929688 659.972656 239.695312 659.148438 C 239.164062 658.792969 238.574219 658.5 238.042969 658.144531 C 230.90625 653.835938 223.648438 649.117188 217.042969 643.335938 C 213.621094 640.738281 210.316406 638.027344 207.070312 635.253906 C 208.84375 638.261719 209.960938 641.507812 211.378906 640.089844 C 215.746094 645.753906 206.128906 641.800781 203.179688 638.851562 C 203.121094 642.15625 206.542969 647.464844 199.460938 643.277344 C 197.867188 646.34375 203.238281 650.59375 203.355469 654.074219 C 205.421875 654.722656 207.308594 655.546875 210.082031 657.496094 L 218.28125 663.160156 C 224.769531 666.699219 232.027344 670.886719 239.222656 675.785156 C 244.769531 679.679688 250.964844 682.804688 256.449219 686.523438 C 262.113281 690.003906 267.246094 693.898438 272.027344 696.847656 C 273.324219 698.203125 257.511719 691.242188 248.308594 688.410156 C 248.367188 687.761719 248.605469 687.347656 248.957031 687.113281 C 238.28125 683.335938 228.605469 676.375 214.210938 665.753906 C 213.679688 665.402344 213.148438 665.164062 212.617188 664.8125 C 212.675781 664.75 212.675781 664.691406 212.734375 664.691406 C 212.324219 664.398438 211.96875 664.160156 211.554688 663.808594 C 212.027344 664.042969 212.441406 664.222656 212.914062 664.457031 C 214.269531 663.160156 212.792969 661.566406 210.730469 659.855469 C 198.222656 654.722656 189.316406 648.292969 179.757812 641.800781 C 175.214844 638.144531 170.554688 634.367188 165.421875 630.296875 C 160.230469 626.226562 154.390625 621.976562 148.195312 616.609375 C 148.609375 607.230469 131.027344 600.324219 123.949219 586.519531 C 125.128906 588.527344 127.253906 596.019531 130.851562 602.921875 C 132.855469 606.34375 135.15625 609.589844 137.695312 611.949219 C 136.984375 610.414062 136.632812 608.941406 136.867188 607.464844 C 138.816406 610.472656 140.996094 613.011719 143.238281 615.253906 C 144.007812 615.429688 144.714844 615.546875 145.480469 615.488281 C 146.1875 616.84375 146.1875 617.496094 145.894531 617.847656 C 151.320312 622.921875 156.574219 626.933594 158.8125 633.070312 C 156.984375 629.53125 148.371094 623.984375 142.472656 618.144531 C 142.355469 618.144531 142.238281 618.203125 142.175781 618.203125 C 148.019531 623.277344 149.199219 623.984375 149.492188 629.234375 C 152.738281 631.832031 149.847656 625.871094 153.445312 629.175781 C 155.039062 633.425781 156.394531 637.375 163.238281 646.285156 C 164.949219 647.996094 166.542969 649.765625 168.3125 651.417969 C 169.492188 650.179688 167.957031 648.234375 166.070312 646.109375 C 176.335938 656.847656 187.722656 666.875 199.992188 676.316406 C 199.34375 675.195312 199.226562 674.074219 200.109375 673.128906 C 204.832031 677.023438 210.082031 680.210938 215.214844 683.574219 C 213.972656 683.632812 209.550781 682.390625 205.597656 680.5625 C 232.441406 700.269531 263.707031 716.90625 299.636719 729.710938 C 299.574219 733.957031 286.125 724.222656 285.949219 728.351562 C 293.5 734.3125 313.972656 738.203125 327.066406 741.273438 C 330.667969 736.730469 317.15625 737.144531 311.964844 735.019531 C 305.949219 731.480469 333.851562 737.554688 335.503906 740.09375 C 330.960938 742.867188 321.640625 741.804688 311.140625 739.445312 C 300.816406 736.433594 289.371094 732.011719 279.753906 729.296875 C 281.523438 728.648438 283.234375 728 283.765625 726.050781 C 281.230469 725.285156 278.691406 724.339844 276.214844 723.277344 C 275.035156 726.289062 276.746094 726.582031 268.542969 727.878906 C 266.480469 727.46875 265.359375 726.289062 264.652344 724.988281 C 263.414062 724.515625 262.171875 724.046875 260.875 723.457031 C 254.679688 720.742188 248.074219 716.140625 243.296875 714.664062 C 247.660156 714.78125 250.90625 715.902344 254.089844 717.4375 C 253.855469 716.019531 254.5625 714.902344 249.84375 711.949219 C 244.652344 712.953125 236.394531 709.707031 227.25 704.988281 C 218.046875 699.382812 208.132812 692.128906 199.578125 687.054688 C 200.757812 686.933594 201.878906 686.757812 202.824219 686.285156 C 200.820312 684.8125 198.8125 683.335938 196.808594 681.863281 C 196.039062 683.160156 195.449219 683.453125 189.195312 682.804688 C 182.648438 679.558594 189.019531 670.355469 181.527344 674.898438 C 176.101562 669.355469 178.460938 669.058594 178.046875 666.875 C 170.199219 660.679688 162.886719 655.136719 157.042969 651.183594 C 157.871094 651.0625 158.285156 650.769531 158.460938 650.414062 C 152.796875 645.046875 146.308594 638.320312 140.230469 630.414062 C 136.632812 625.929688 132.972656 621.386719 129.316406 616.785156 C 129.257812 616.726562 129.199219 616.667969 129.199219 616.609375 C 128.84375 618.085938 128.371094 619.914062 125.304688 617.730469 C 124.359375 619.382812 125.480469 621.09375 127.132812 622.6875 C 127.015625 622.449219 126.839844 622.214844 126.601562 621.917969 C 129.554688 622.390625 131.027344 624.457031 132.207031 626.933594 C 133.269531 627.9375 133.859375 628.761719 133.269531 629.410156 C 134.390625 632.242188 135.570312 635.253906 137.929688 637.4375 C 133.976562 637.96875 132.796875 633.484375 131.792969 630.121094 C 131.734375 630.121094 131.734375 630.179688 131.675781 630.179688 C 130.554688 628.820312 129.613281 627.878906 128.785156 627.050781 C 128.550781 627.289062 128.253906 627.523438 127.902344 627.9375 C 127.3125 627.050781 127.253906 626.402344 127.371094 625.753906 C 124.242188 623.160156 123.003906 623.75 120.820312 621.269531 C 119.230469 617.316406 119.996094 614.425781 123.121094 612.597656 C 118.402344 605.578125 115.277344 604.632812 111.738281 604.042969 C 122.121094 611.59375 109.257812 605.988281 118.519531 616.019531 C 116.867188 616.433594 114.332031 612.363281 112.855469 613.363281 C 114.746094 620.386719 125.894531 631.359375 129.789062 639.027344 C 121.351562 629.882812 110.203125 618.261719 102.296875 607.464844 C 94.097656 596.902344 86.898438 588.761719 84.363281 588.230469 C 80.824219 588.761719 79.40625 573.953125 85.484375 584.277344 C 84.1875 580.03125 70.851562 566.046875 66.132812 552.597656 C 65.78125 556.726562 66.960938 561.742188 62.003906 557.609375 C 65.71875 569.941406 66.191406 566.226562 72.328125 575.132812 C 70.617188 574.308594 68.847656 573.539062 67.136719 574.542969 C 72.917969 582.332031 73.210938 578.261719 74.039062 587.464844 C 56.222656 558.261719 40.410156 519.261719 31.328125 478.554688 C 26.195312 458.730469 24.1875 437.902344 22.59375 418.019531 C 22.300781 408.109375 22.183594 398.316406 22.183594 388.933594 C 22.003906 379.496094 23.304688 370.527344 23.894531 361.914062 C 21.710938 358.90625 24.660156 355.363281 26.84375 351.117188 C 27.316406 347.339844 27.90625 343.683594 28.496094 339.964844 C 27.136719 339.316406 24.128906 343.742188 26.253906 335.363281 C 27.90625 332.53125 29.617188 328.046875 31.386719 322.621094 C 31.5625 321.734375 31.679688 320.851562 31.855469 319.964844 C 34.15625 310.289062 36.578125 300.851562 38.996094 291.765625 C 41.238281 282.621094 44.835938 274.242188 47.667969 266.101562 C 46.191406 262.324219 50.792969 259.550781 54.15625 255.539062 C 55.394531 252.472656 56.636719 249.34375 57.933594 246.277344 C 57.046875 244.800781 52.445312 248.933594 56.8125 241.144531 C 59.40625 238.605469 62.535156 234.183594 66.015625 228.695312 C 66.722656 227.28125 67.371094 225.804688 68.140625 224.449219 C 71.679688 217.605469 75.042969 210.996094 78.402344 204.917969 C 82.0625 199.078125 85.542969 193.710938 88.667969 188.988281 C 76.632812 204.800781 67.785156 220.730469 58.757812 236.1875 C 51.03125 252.292969 42.832031 268.046875 37.402344 285.921875 C 42.417969 261.261719 52.445312 238.429688 63.65625 217.25 Z M 260.460938 721.09375 C 261.347656 721.507812 262.292969 721.921875 263.234375 722.332031 C 262.703125 720.742188 262.171875 719.855469 260.460938 721.09375 Z M 179.402344 608.527344 C 178.871094 607.996094 178.339844 607.40625 177.75 606.875 C 177.457031 607.878906 177.515625 608.820312 177.691406 609.824219 C 177.929688 609.234375 178.695312 609.117188 179.402344 608.527344 Z M 515.675781 37.128906 C 519.15625 38.191406 522.457031 39.191406 525.410156 39.84375 C 522.457031 38.601562 519.628906 37.480469 516.796875 36.359375 C 516.085938 36.597656 515.675781 36.832031 515.675781 37.128906 Z M 119.820312 580.679688 C 116.808594 577.550781 113.859375 573.597656 110.910156 569.882812 C 110.675781 570.058594 110.496094 570.117188 110.261719 570.414062 C 113.386719 576.609375 117.753906 583.804688 120.878906 582.152344 C 120.585938 581.742188 120.171875 581.210938 119.820312 580.679688 Z M 93.683594 538.496094 C 94.628906 539.675781 95.628906 540.679688 96.75 541.386719 C 95.867188 539.5 94.980469 537.433594 94.214844 534.777344 C 93.742188 535.78125 93.625 537.078125 93.683594 538.496094 Z M 95.511719 544.277344 C 95.628906 544.453125 95.691406 544.632812 95.75 544.867188 C 97.046875 546.753906 97.929688 548.171875 98.640625 549.410156 C 98.875 549.703125 99.050781 550.058594 99.347656 550.355469 C 103.714844 555.898438 109.199219 560.972656 111.617188 563.6875 C 107.488281 553.835938 102.769531 551.238281 98.757812 544.984375 C 97.929688 545.042969 96.515625 544.160156 95.511719 544.277344 Z M 98.34375 584.574219 C 101.648438 589.765625 104.363281 593.421875 103.652344 589.941406 C 99.820312 585.222656 98.167969 580.5625 96.75 576.84375 C 95.21875 573.1875 93.683594 570.472656 90.144531 569.292969 C 91.914062 572.125 95.277344 579.203125 98.34375 584.574219 Z M 99.050781 596.136719 L 109.90625 612.359375 L 112.265625 610.648438 C 107.785156 606.046875 102.472656 591.296875 99.050781 596.136719 Z M 242.054688 711.125 C 242.292969 710.945312 242.292969 710.769531 242.46875 710.59375 C 239.933594 709.648438 236.921875 708.292969 233.5 706.464844 C 226.128906 702.628906 216.925781 697.257812 207.898438 690.355469 C 215.273438 697.496094 231.378906 705.402344 242.054688 711.125 Z M 200.289062 630.828125 C 200.820312 630.652344 201.347656 630.710938 201.820312 630.769531 C 193.855469 623.867188 186.1875 617.082031 178.339844 611.769531 C 179.699219 614.601562 182.648438 617.492188 186.1875 620.5625 C 189.019531 622.921875 192.085938 625.636719 195.390625 628.171875 C 198.695312 630.710938 202 633.421875 204.769531 636.492188 C 205.597656 634.957031 202.292969 632.832031 200.289062 630.828125 Z M 240.285156 655.605469 C 239.164062 655.253906 237.75 654.542969 236.097656 653.660156 C 237.453125 654.605469 238.871094 655.546875 240.285156 656.492188 C 240.285156 656.195312 240.34375 655.960938 240.285156 655.605469 Z M 235.449219 614.367188 C 233.679688 612.421875 231.851562 610.472656 229.84375 608.585938 C 230.375 610.886719 232.675781 612.597656 235.449219 614.367188 Z M 230.082031 607.050781 C 230.019531 606.933594 229.902344 606.875 229.84375 606.757812 C 229.84375 606.816406 229.84375 606.875 229.84375 606.933594 C 229.902344 606.933594 230.019531 606.992188 230.082031 607.050781 Z M 770.058594 294.65625 C 767.699219 287.164062 765.339844 281.203125 765.105469 281.851562 C 765.105469 281.910156 765.105469 281.972656 765.105469 282.03125 C 767.167969 287.457031 768.761719 291.648438 770.058594 294.65625 Z M 733.777344 206.570312 C 733.128906 204.683594 730.828125 200.671875 727.230469 195.597656 C 730.296875 200.90625 732.421875 204.507812 733.835938 206.6875 C 733.777344 206.628906 733.777344 206.628906 733.777344 206.570312 Z M 715.609375 168.339844 C 715.902344 168.753906 716.078125 169.167969 716.375 169.578125 C 718.261719 172.175781 720.089844 174.890625 721.921875 177.484375 C 719.855469 174.238281 717.730469 171.054688 715.609375 168.339844 Z M 381.226562 14.117188 C 382.464844 15.886719 387.007812 16.832031 393.554688 17.304688 C 399.101562 17.539062 406.121094 17.894531 413.90625 18.308594 C 415.972656 18.25 417.859375 18.070312 419.335938 17.71875 C 418.570312 18.011719 418.15625 18.308594 417.742188 18.542969 C 420.988281 18.71875 424.292969 18.957031 427.652344 19.191406 C 426.945312 17.070312 439.984375 18.601562 457.503906 21.550781 C 461.398438 22.320312 465.527344 23.324219 469.777344 24.324219 C 477.152344 25.5625 483.582031 27.335938 488.832031 29.222656 C 490.304688 29.578125 491.78125 29.988281 493.257812 30.34375 C 493.90625 30.519531 494.554688 30.695312 495.203125 30.933594 C 491.957031 27.394531 505.410156 33.589844 514.496094 35.476562 C 510.128906 33.765625 505.820312 32.054688 501.691406 30.519531 C 494.140625 27.804688 486.765625 25.976562 479.6875 23.972656 C 472.84375 22.203125 466.175781 20.371094 459.6875 19.074219 C 457.917969 18.839844 456.265625 18.601562 454.4375 18.367188 C 454.4375 18.308594 454.496094 18.308594 454.554688 18.25 C 449.363281 17.421875 444.230469 16.597656 439.097656 15.949219 C 432.492188 15.179688 425.941406 14.175781 419.21875 13.882812 C 412.492188 13.707031 405.707031 13.585938 398.628906 13.648438 C 393.023438 13.46875 387.183594 13.707031 381.226562 14.117188 Z M 51.324219 222.796875 C 53.625 216.777344 62.652344 205.980469 60.527344 203.207031 C 58.050781 206.867188 55.925781 206.570312 53.449219 209.875 C 57.578125 210.640625 49.082031 220.671875 51.324219 222.796875 Z M 282.878906 721.390625 C 287.304688 722.273438 292.320312 722.273438 293.558594 721.921875 C 287.71875 720.03125 281.820312 718.320312 276.273438 715.726562 C 274.917969 718.382812 278.457031 720.503906 282.878906 721.390625 Z M 361.402344 747.054688 C 354.027344 747.703125 348.660156 746.640625 343.824219 745.578125 C 338.984375 744.339844 334.679688 743.394531 328.898438 744.8125 C 333.851562 744.988281 341.402344 747.703125 348.128906 748.707031 C 354.855469 749.769531 360.578125 750.0625 361.402344 747.054688 Z M 282.644531 643.15625 C 293.382812 645.988281 301.9375 657.140625 309.488281 654.367188 C 302.585938 651.417969 290.253906 642.449219 282.644531 643.15625 Z M 329.308594 660.679688 C 323.941406 660.269531 313.144531 652.597656 312.496094 658.378906 C 319.574219 656.90625 326.417969 665.105469 329.308594 660.679688 Z M 169.90625 740.328125 C 176.867188 744.753906 184.714844 751.007812 192.738281 756.613281 C 200.757812 762.097656 209.371094 766.226562 216.628906 767.761719 C 209.019531 763.335938 199.402344 757.851562 191.261719 751.832031 C 182.882812 746.050781 175.214844 741.273438 169.90625 740.328125 Z M 27.667969 551.414062 C 29.203125 550.414062 30.324219 549.351562 28.140625 544.570312 L 24.128906 546.105469 C 26.488281 553.539062 29.734375 560.265625 32.742188 559.5 C 31.089844 555.488281 29.378906 553.421875 27.667969 551.414062 Z M 245.476562 749.828125 C 254.328125 752.539062 268.308594 760.386719 274.855469 760.269531 C 284.828125 764.105469 294.089844 766.878906 297.628906 765.519531 C 291.199219 763.515625 281.699219 759.976562 272.320312 756.613281 C 263 753.191406 254.089844 748.941406 247.835938 747.46875 C 251.199219 749 255.449219 751.242188 260.109375 753.601562 C 261.640625 754.429688 263.292969 755.195312 264.886719 756.023438 C 257.277344 752.71875 249.429688 749.117188 245.476562 749.828125 Z M 191.320312 662.863281 C 187.015625 658.554688 183.296875 655.605469 180.640625 653.601562 C 178.046875 651.476562 176.335938 650.59375 175.804688 650.769531 C 174.800781 651.003906 178.578125 656.019531 191.320312 662.863281 Z M 151.910156 654.664062 C 163.535156 664.160156 178.28125 676.667969 193.855469 688.234375 C 193.796875 687.347656 193.679688 686.523438 192.207031 685.460938 C 199.109375 684.8125 200.640625 694.074219 207.191406 697.554688 C 207.132812 697.554688 207.070312 697.554688 207.011719 697.613281 C 212.972656 701.625 218.929688 705.460938 224.828125 708.707031 C 220.109375 707.703125 213.5625 703.808594 206.777344 699.207031 C 206.070312 698.734375 205.421875 698.261719 204.710938 697.789062 C 203.710938 697.554688 202.765625 696.847656 202 695.960938 C 196.746094 692.304688 191.675781 688.527344 187.367188 685.402344 L 169.019531 670.769531 C 163.121094 665.636719 157.574219 660.089844 151.910156 654.664062 Z M 195.804688 689.707031 C 197.042969 690.59375 198.28125 691.476562 199.519531 692.363281 C 198.164062 690.121094 197.042969 688.410156 195.804688 689.707031 Z M 12.507812 374.242188 C 12.625 368.460938 13.097656 365.867188 13.980469 365.984375 C 13.332031 369.996094 12.742188 374.242188 12.09375 378.667969 C 11.679688 378.195312 11.386719 377.605469 10.855469 377.195312 C 10.441406 387.753906 9.378906 399.496094 9.558594 411.886719 C 9.4375 424.273438 9.027344 437.371094 10.324219 450.234375 C 11.269531 463.15625 12.328125 476.074219 15.160156 487.816406 C 17.757812 499.617188 20.175781 510.765625 24.363281 519.734375 C 22.890625 510.589844 21.296875 500.914062 19.761719 491.121094 C 21.179688 497.964844 22.773438 505.160156 24.835938 512.535156 C 27.964844 524.570312 30.914062 537.257812 35.515625 549.410156 C 39.761719 561.621094 44.1875 573.835938 49.910156 584.453125 C 55.457031 595.191406 60.707031 605.28125 67.078125 612.890625 C 52.210938 579.851562 33.921875 540.5 28.257812 507.285156 C 29.203125 509.410156 29.96875 513.007812 31.386719 512.652344 C 27.726562 508.171875 25.839844 500.5 24.660156 493.480469 C 23.480469 487.046875 22.003906 481.445312 18.113281 479.320312 C 17.816406 477.136719 17.523438 474.953125 17.226562 472.769531 C 17.460938 473.65625 17.757812 474.542969 17.992188 475.367188 C 15.929688 466.695312 16.402344 465.042969 19.703125 468.9375 C 17.050781 460.675781 16.046875 450.824219 14.925781 440.382812 C 14.394531 435.1875 13.980469 429.820312 13.628906 424.394531 C 13.570312 423.035156 13.570312 421.621094 13.570312 420.261719 C 13.628906 415.957031 13.863281 411.707031 14.21875 407.578125 C 14.570312 409.878906 14.394531 413.535156 15.8125 413.597656 C 13.449219 408.285156 13.570312 400.378906 14.277344 393.300781 C 14.511719 390.113281 14.628906 387.105469 14.394531 384.511719 C 14.511719 382.089844 14.570312 379.496094 14.808594 377.195312 C 15.101562 373.949219 15.339844 370.820312 15.574219 367.753906 C 15.691406 367.929688 15.75 368.109375 15.871094 368.34375 C 15.8125 366.632812 15.871094 364.804688 15.929688 363.035156 C 15.988281 361.738281 16.046875 360.496094 16.164062 359.257812 C 16.636719 353.003906 17.640625 346.398438 18.703125 339.554688 C 19.527344 334.359375 20.53125 329.109375 21.59375 323.800781 C 22.652344 318.492188 24.363281 313.300781 25.78125 308.105469 C 25.78125 308.046875 25.839844 307.988281 25.839844 307.929688 C 26.074219 309.109375 26.546875 310.347656 27.136719 310.9375 C 29.851562 299.257812 33.921875 287.871094 37.578125 276.367188 C 36.988281 269.167969 29.851562 297.074219 27.136719 304.742188 C 26.960938 304.742188 26.902344 304.980469 26.726562 305.039062 C 29.4375 295.777344 31.917969 286.632812 34.925781 278.550781 C 38.230469 269.523438 41.121094 261.320312 43.007812 254.476562 C 39.761719 261.4375 35.808594 270.289062 31.621094 280.140625 C 27.785156 290.113281 24.425781 301.320312 21.0625 312.53125 C 19.292969 318.136719 17.992188 323.800781 17.050781 329.523438 C 15.988281 335.1875 15.042969 340.734375 14.277344 346.042969 C 13.570312 351.351562 12.742188 356.425781 12.566406 361.144531 C 12.269531 365.984375 12.328125 370.351562 12.507812 374.242188 Z M 207.601562 726.816406 C 201.878906 723.21875 193.621094 717.320312 185.480469 711.65625 C 177.339844 705.933594 169.847656 699.558594 164.183594 696.492188 C 167.015625 698.851562 170.554688 702.097656 174.449219 705.578125 C 178.28125 709.175781 182.53125 712.777344 186.953125 715.84375 C 195.566406 722.15625 203.828125 727.230469 207.601562 726.816406 Z M 3.363281 345.15625 C 2.832031 349.523438 2.417969 354.007812 2.242188 358.316406 C 2.300781 362.679688 2.476562 366.808594 2.65625 370.351562 C 2.535156 365.925781 2.773438 361.382812 3.480469 357.015625 C 4.304688 352.652344 5.308594 348.34375 6.253906 344.273438 C 8.140625 336.191406 9.851562 329.109375 9.320312 324.035156 C 6.3125 328.402344 4.425781 336.425781 3.363281 345.15625 Z M 358.984375 774.191406 C 348.835938 770.652344 355.207031 774.605469 358.984375 774.191406 Z M 110.144531 138.839844 C 113.917969 133.589844 125.421875 125.566406 124.125 122.320312 C 120.761719 125.210938 118.816406 124.328125 115.570312 126.921875 C 119.289062 128.753906 108.492188 136.246094 110.144531 138.839844 Z M 318.21875 651.359375 C 312.082031 650 302.585938 643.335938 298.691406 645.398438 C 304.886719 649.707031 311.019531 652.125 318.21875 651.359375 Z M 785.988281 295.421875 C 786.992188 299.199219 787.996094 302.855469 788.878906 306.277344 C 790.886719 313.121094 792.949219 319.023438 795.488281 322.972656 C 791.535156 309.523438 788.289062 293.476562 782.390625 284.09375 C 783.628906 287.929688 784.808594 291.707031 785.988281 295.421875 Z M 477.152344 800.976562 C 474.496094 805.875 472.195312 810.773438 466.53125 814.546875 C 476.621094 814.253906 477.917969 811.007812 485.410156 809.472656 C 484.820312 804.992188 482.34375 801.980469 477.152344 800.976562 Z M 798.140625 407.933594 C 798.320312 398.136719 803.273438 382.859375 798.4375 373.476562 C 793.246094 375.777344 793.480469 402.445312 798.140625 407.933594 Z M 299.046875 758.203125 C 302.996094 762.746094 323.585938 770.949219 332.023438 768.941406 C 322.996094 764.929688 305.238281 756.613281 299.046875 758.203125 Z M 754.191406 585.988281 C 751.125 592.359375 748.230469 598.378906 745.460938 604.21875 C 742.449219 609.941406 739.617188 615.664062 736.90625 621.386719 C 740.621094 615.371094 744.574219 608.878906 748.585938 602.214844 C 752.242188 595.371094 755.960938 588.347656 759.675781 581.445312 C 767.230469 567.757812 772.066406 553.65625 774.660156 542.390625 C 770.945312 550.824219 767.523438 558.613281 764.277344 565.871094 C 760.679688 573.066406 757.316406 579.734375 754.191406 585.988281 Z M 806.222656 389.050781 C 806.992188 397.371094 808.054688 405.570312 808.523438 413.597656 C 808.878906 421.679688 809.234375 429.464844 809.585938 437.078125 C 809.882812 428.167969 810.117188 419.199219 810.058594 410.410156 C 809.585938 401.621094 808.878906 392.945312 808.054688 384.511719 C 807.582031 380.320312 807.109375 376.191406 806.636719 372.121094 C 805.988281 368.050781 805.101562 364.15625 804.277344 360.261719 C 802.566406 352.589844 800.621094 345.277344 798.496094 338.550781 C 801.679688 355.421875 804.925781 372.355469 806.222656 389.050781 Z M 806.222656 389.050781 "/>
</clipPath>
<clipPath id="clip3">
  <path d="M 24.136719 752 L 786.230469 752 L 786.230469 810 L 24.136719 810 Z M 24.136719 752 "/>
</clipPath>
</defs>
<g id="surface1">
<g clip-path="url(#clip1)" clip-rule="nonzero">
<g clip-path="url(#clip2)" clip-rule="nonzero">
<path style=" stroke:none;fill-rule:nonzero;fill:rgb(90.19928%,83.898926%,54.098511%);fill-opacity:1;" d="M 791.359375 931.453125 L 931.390625 19.0625 L 18.757812 -121.019531 L -121.273438 791.367188 Z M 791.359375 931.453125 "/>
</g>
</g>
<path style=" stroke:none;fill-rule:nonzero;fill:rgb(15.289307%,5.879211%,1.568604%);fill-opacity:1;" d="M 285.296875 436.863281 L 282.226562 436.863281 L 275.066406 454.59375 C 295.53125 475.941406 328.992188 466.90625 328.992188 466.90625 L 335.996094 450.164062 L 333.21875 445.6875 L 331.632812 449.6875 C 305.488281 452.59375 283.625 441.207031 283.625 441.207031 Z M 569.832031 345.667969 C 585.257812 392.160156 627.882812 479.972656 627.882812 479.972656 C 627.882812 479.972656 593.074219 362.433594 575.105469 331.28125 C 557.140625 300.132812 507.320312 295.847656 498.207031 297.515625 C 502.457031 297.207031 554.402344 299.179688 569.832031 345.667969 Z M 467.683594 112.660156 C 508.609375 224.265625 497.597656 297.207031 497.597656 297.207031 C 486.226562 300.621094 481.164062 305.601562 468.164062 321.195312 C 455.152344 336.792969 436.382812 348.800781 436.382812 348.800781 L 283.53125 418.851562 C 246.335938 418.335938 233.59375 351.140625 233.59375 351.140625 C 229.039062 378.433594 255.046875 412.21875 255.046875 412.21875 C 237.492188 415.46875 207.582031 390.128906 207.582031 390.128906 C 188.074219 372.585938 180.921875 334.898438 180.921875 334.898438 C 175.71875 346.59375 182.222656 368.683594 182.222656 368.683594 C 143.855469 307.605469 171.164062 222.476562 187.425781 201.03125 C 203.683594 179.59375 217.335938 127.605469 230.339844 89.917969 C 243.34375 52.226562 273.261719 24.289062 341.398438 19.085938 C 409.546875 13.890625 425.417969 52.878906 425.417969 52.878906 C 445.574219 56.125 457.496094 84.871094 467.683594 112.660156 "/>
<g clip-path="url(#clip3)" clip-rule="nonzero">
<path style=" stroke:none;fill-rule:nonzero;fill:rgb(76.469421%,56.079102%,90.19928%);fill-opacity:1;" d="M 614.402344 753.765625 C 630.863281 753.765625 713.964844 753.765625 727.289062 759.683594 C 740.617188 765.59375 793.929688 812.164062 785.300781 818.960938 C 776.679688 825.75 723.371094 817.65625 686.523438 818.808594 C 649.679688 819.976562 557.171875 813.734375 532.945312 815.304688 C 508.714844 816.863281 48.316406 822.347656 29.496094 815.304688 C 10.679688 808.25 45.960938 791.015625 64.777344 778.449219 C 83.59375 765.882812 90.347656 757.210938 102.402344 753.765625 C 112.253906 750.953125 597.9375 753.765625 614.402344 753.765625 "/>
</g>
<path style=" stroke:none;fill-rule:nonzero;fill:rgb(49.01886%,84.309387%,77.648926%);fill-opacity:1;" d="M 328.992188 466.90625 C 328.992188 466.90625 295.53125 475.941406 275.066406 454.59375 L 282.226562 436.863281 L 285.296875 436.863281 L 283.625 441.207031 C 283.625 441.207031 305.488281 452.59375 331.632812 449.6875 L 333.21875 445.6875 L 335.996094 450.164062 Z M 628.496094 478.792969 C 628.476562 478.761719 585.273438 391.257812 569.546875 344.878906 C 553.8125 298.496094 501.851562 296.871094 497.597656 297.203125 C 496.316406 297.589844 495.128906 298 493.992188 298.429688 C 493.277344 298.71875 492.472656 299.058594 491.601562 299.433594 C 483.972656 302.949219 478.648438 308.621094 468.164062 321.195312 C 455.152344 336.792969 436.382812 348.800781 436.382812 348.800781 L 283.53125 418.851562 C 246.335938 418.335938 233.59375 351.140625 233.59375 351.140625 C 229.039062 378.433594 255.046875 412.21875 255.046875 412.21875 C 248.511719 413.429688 240.261719 410.675781 232.476562 406.734375 C 232.476562 406.734375 188.480469 404.628906 186.207031 453.0625 C 183.9375 501.5 183.953125 527.785156 180.050781 545.734375 C 176.136719 563.683594 235.4375 638.484375 249.824219 639.242188 C 264.210938 639.996094 287.367188 601.117188 287.367188 601.117188 C 287.367188 601.117188 283.148438 627.132812 291.480469 636.214844 C 299.8125 645.296875 318.746094 658.160156 324.046875 681.621094 C 329.34375 705.085938 324.308594 753.765625 324.308594 753.765625 C 324.308594 753.765625 623.949219 716.433594 628.496094 711.898438 C 633.042969 707.355469 628.496094 478.792969 628.496094 478.792969 "/>
<path style=" stroke:none;fill-rule:nonzero;fill:rgb(94.119263%,73.329163%,69.018555%);fill-opacity:1;" d="M 703.472656 692.976562 C 698.167969 652.863281 628.496094 478.792969 628.496094 478.792969 C 587.597656 479.554688 537.613281 537.070312 537.613281 537.070312 C 558.816406 569.613281 602.878906 695.703125 602.878906 695.703125 C 583.9375 683.804688 541.929688 695.8125 484.367188 701.105469 C 426.8125 706.410156 373.269531 699.789062 360.398438 701.300781 C 347.523438 702.8125 296.777344 753.519531 296.777344 753.519531 C 296.777344 753.519531 363.425781 754.273438 367.210938 753.519531 C 371.003906 752.761719 443.703125 755.035156 508.082031 771.683594 C 572.453125 788.335938 681.503906 780.011719 693.621094 771.683594 C 705.742188 763.359375 708.773438 733.085938 703.472656 692.976562 "/>
<path style=" stroke:none;fill-rule:nonzero;fill:rgb(94.119263%,73.329163%,69.018555%);fill-opacity:1;" d="M 324.4375 467.828125 C 314.917969 469.378906 292.492188 471.015625 276.675781 456.175781 C 256.679688 496.492188 212.890625 570.703125 212.890625 570.703125 C 212.890625 570.703125 206.800781 553.675781 180.050781 545.734375 C 178.035156 557.910156 162.195312 623.507812 150.058594 644.199219 C 137.921875 664.890625 131.492188 701.996094 140.0625 729.824219 C 148.632812 757.648438 164.339844 775.492188 180.050781 778.347656 C 195.753906 781.195312 262.160156 724.828125 267.15625 694.148438 C 272.15625 663.46875 307.136719 511.484375 320.707031 477.238281 C 322.054688 473.839844 323.292969 470.714844 324.4375 467.828125 "/>
<path style=" stroke:none;fill-rule:nonzero;fill:rgb(94.119263%,73.329163%,69.018555%);fill-opacity:1;" d="M 282.921875 168.445312 C 282.921875 168.445312 286.707031 171.863281 273.898438 176.304688 C 273.53125 176.4375 281.089844 172.722656 282.921875 168.445312 Z M 332.558594 168.476562 C 333.246094 171.554688 334.859375 177.628906 337.238281 179.730469 C 337.238281 179.730469 335.226562 172.992188 334.621094 168.492188 C 344.640625 168.570312 365.265625 168.699219 370.382812 168.445312 C 377.207031 168.105469 390.335938 191.023438 390.335938 191.023438 C 390.335938 191.023438 379.410156 184.199219 373.949219 181.128906 C 368.492188 178.0625 346.71875 180.933594 339.894531 180.933594 C 333.070312 180.933594 329.09375 168.445312 329.09375 168.445312 C 329.09375 168.445312 330.414062 168.457031 332.558594 168.476562 Z M 286.433594 432.285156 C 286.386719 433.3125 285.980469 434.882812 285.296875 436.863281 C 284.855469 438.136719 284.296875 439.585938 283.625 441.207031 C 283.632812 441.207031 305.488281 452.59375 331.632812 449.6875 L 331.644531 449.65625 C 332.207031 448.234375 332.71875 446.953125 333.175781 445.792969 L 333.21875 445.6875 C 336.257812 438.023438 337.128906 435.855469 337.128906 435.855469 C 337.128906 435.855469 430.667969 433.707031 436.382812 348.800781 C 436.382812 348.800781 411.386719 341.667969 411.386719 319.542969 C 411.386719 297.425781 422.8125 257.472656 422.8125 257.472656 C 422.8125 257.472656 434.234375 261.753906 440.664062 244.628906 C 440.664062 244.628906 423.527344 232.496094 422.097656 216.796875 C 420.671875 201.101562 413.527344 134.746094 399.964844 126.894531 C 399.964844 126.894531 367.832031 114.054688 368.546875 91.222656 C 368.546875 91.222656 317.140625 96.929688 294.285156 79.800781 C 291.738281 77.886719 275.726562 98.355469 256.445312 106.203125 C 256.445312 106.203125 243.210938 133.1875 247.492188 161.730469 C 255.214844 159.980469 281.511719 168.445312 281.511719 168.445312 C 281.511719 168.445312 274.265625 176.472656 263.710938 175.671875 C 250.210938 174.640625 244.730469 176.3125 244.722656 176.3125 C 243.683594 181.160156 243.957031 183.714844 247.003906 191.113281 L 244.605469 209.664062 C 244.605469 209.664062 238.597656 216.796875 237.878906 230.355469 C 237.164062 243.914062 234.3125 290.292969 237.878906 301.710938 C 241.453125 313.125 287.148438 417.300781 286.433594 432.285156 "/>
<path style=" stroke:none;fill-rule:nonzero;fill:rgb(87.838745%,59.21936%,58.039856%);fill-opacity:1;" d="M 602.878906 695.703125 C 602.878906 695.703125 620.992188 705.71875 627.691406 719.664062 C 627.691406 719.664062 622.675781 701.808594 600.902344 690.101562 Z M 136.144531 700.945312 C 136.320312 700.546875 146.238281 677.988281 157.78125 648.335938 C 169.421875 618.425781 212.890625 570.703125 212.890625 570.703125 C 212.890625 570.703125 206.800781 553.675781 180.050781 545.734375 C 178.035156 557.910156 162.199219 623.507812 150.058594 644.199219 C 141.824219 658.234375 136.226562 679.820312 136.144531 700.945312 Z M 278.515625 332.46875 C 274.453125 325.101562 268.230469 308.644531 267.199219 307.101562 C 266.914062 306.675781 266.417969 305.527344 265.789062 303.996094 C 265.789062 303.976562 261.222656 283.171875 262.085938 279.269531 C 262.945312 275.367188 262.085938 241.9375 262.085938 241.9375 L 257.445312 283.285156 C 255.203125 275.171875 252.320312 259.78125 252.585938 243.0625 C 253.023438 215.242188 244.605469 209.664062 244.605469 209.664062 C 249.550781 221.765625 248.648438 244.183594 249.773438 263.285156 C 250.4375 274.632812 253.488281 283.976562 256.554688 291.242188 L 256.546875 291.253906 L 256.566406 291.277344 C 258.648438 296.222656 260.742188 300.214844 262.085938 303.167969 C 264.851562 309.265625 275.175781 326.828125 278.515625 332.46875 Z M 278.515625 332.46875 C 278.886719 333.140625 279.238281 333.742188 279.5625 334.246094 C 279.5625 334.246094 279.175781 333.585938 278.515625 332.46875 Z M 293.996094 430.871094 C 293.433594 435.378906 291.410156 439.398438 289.539062 443.773438 C 290.507812 444.148438 291.585938 444.542969 292.753906 444.945312 C 295.058594 438.488281 297.289062 432.511719 296.777344 429.066406 C 295.867188 422.824219 288.398438 390.804688 288.398438 390.804688 C 287.4375 393.609375 295.121094 421.882812 293.996094 430.871094 Z M 285.578125 462.601562 C 283.683594 473.085938 275.066406 482.9375 275.066406 482.9375 C 275.066406 482.9375 284.804688 473.375 287.695312 463.679688 C 286.984375 463.339844 286.28125 462.976562 285.578125 462.601562 Z M 436.382812 348.800781 C 430.667969 433.707031 337.128906 435.855469 337.128906 435.855469 C 337.128906 435.855469 346.398438 418.851562 341.398438 392.332031 C 339.222656 380.761719 323.914062 370.171875 314.246094 352.796875 C 314.597656 353.5625 315 354.347656 315.476562 355.136719 C 315.476562 355.136719 296.113281 330.691406 288.398438 307.660156 C 280.6875 284.628906 283.394531 236.316406 262.085938 241.9375 C 262.085938 241.9375 276.757812 235.195312 279.5625 254.859375 C 282.375 274.519531 292.070312 313.28125 296.777344 320.585938 C 301.488281 327.886719 312.148438 345.828125 312.148438 345.828125 C 312.148438 345.828125 322.050781 349.910156 334.902344 340.570312 C 347.746094 331.234375 387.460938 313.726562 393.886719 305.550781 C 400.3125 297.382812 426.128906 259.5 428.695312 232.628906 C 434.046875 239.945312 440.664062 244.628906 440.664062 244.628906 C 434.234375 261.753906 422.8125 257.472656 422.8125 257.472656 C 422.8125 257.472656 411.386719 297.425781 411.386719 319.542969 C 411.386719 341.667969 436.382812 348.800781 436.382812 348.800781 "/>
</g>
</svg>
